<?xml version="1.0" encoding="UTF-8" standalone="no"?>
<!DOCTYPE svg PUBLIC "-//W3C//DTD SVG 1.1//EN"
 "http://www.w3.org/Graphics/SVG/1.1/DTD/svg11.dtd">
<!-- Generated by graphviz version 2.40.1 (20161225.0304)
 -->
<!-- Title: G Pages: 1 -->
<svg width="89pt" height="188pt"
 viewBox="0.00 0.00 89.00 188.00" xmlns="http://www.w3.org/2000/svg" xmlns:xlink="http://www.w3.org/1999/xlink">
<g id="graph0" class="graph" transform="scale(1 1) rotate(0) translate(4 184)">
<title>G</title>
<polygon fill="#ffffff" stroke="transparent" points="-4,4 -4,-184 85,-184 85,4 -4,4"/>
<!-- user -->
<g id="node1" class="node">
<title>user</title>
<polygon fill="none" stroke="#000000" points="81,-180 27,-180 27,-144 81,-144 81,-180"/>
<text text-anchor="middle" x="54" y="-158.3" font-family="Times,serif" font-size="14.00" fill="#000000">user</text>
</g>
<!-- slide -->
<g id="node2" class="node">
<title>slide</title>
<polygon fill="none" stroke="#000000" points="54,-108 0,-108 0,-72 54,-72 54,-108"/>
<text text-anchor="middle" x="27" y="-86.3" font-family="Times,serif" font-size="14.00" fill="#000000">slide</text>
</g>
<!-- user&#45;&gt;slide -->
<g id="edge1" class="edge">
<title>user&#45;&gt;slide</title>
<path fill="none" stroke="#000000" d="M47.1868,-143.8314C44.2356,-135.9617 40.7142,-126.5712 37.445,-117.8533"/>
<polygon fill="#000000" stroke="#000000" points="40.6934,-116.5476 33.905,-108.4133 34.1391,-119.0055 40.6934,-116.5476"/>
</g>
<!-- share -->
<g id="node3" class="node">
<title>share</title>
<polygon fill="none" stroke="#000000" points="81,-36 27,-36 27,0 81,0 81,-36"/>
<text text-anchor="middle" x="54" y="-14.3" font-family="Times,serif" font-size="14.00" fill="#000000">share</text>
</g>
<!-- user&#45;&gt;share -->
<g id="edge3" class="edge">
<title>user&#45;&gt;share</title>
<path fill="none" stroke="#000000" d="M57.8413,-143.6001C59.8166,-133.2025 62.0123,-119.9346 63,-108 64.3197,-92.0545 64.3197,-87.9455 63,-72 62.3055,-63.6085 61.0138,-54.5578 59.6214,-46.3092"/>
<polygon fill="#000000" stroke="#000000" points="63.0544,-45.6235 57.8413,-36.3999 56.1647,-46.8612 63.0544,-45.6235"/>
</g>
<!-- slide&#45;&gt;share -->
<g id="edge2" class="edge">
<title>slide&#45;&gt;share</title>
<path fill="none" stroke="#000000" d="M33.8132,-71.8314C36.7644,-63.9617 40.2858,-54.5712 43.555,-45.8533"/>
<polygon fill="#000000" stroke="#000000" points="46.8609,-47.0055 47.095,-36.4133 40.3066,-44.5476 46.8609,-47.0055"/>
</g>
</g>
</svg>
